<svg width="15" height="14" viewBox="0 0 15 14" fill="none" xmlns="http://www.w3.org/2000/svg">
<path d="M10.619 10.1024C10.7381 10.4515 10.7977 10.8587 10.7977 11.2077V13.4183C10.7977 13.7673 10.5595 14 10.2022 14C9.84495 14 9.60677 13.7673 9.60677 13.4183V11.1495C9.66632 10.6842 9.48768 10.3351 9.18996 10.0443C9.01133 9.86974 8.95179 9.63705 9.07087 9.46253C9.13042 9.22984 9.3686 9.1135 9.54723 9.05532C11.274 8.88081 12.8817 8.29908 12.8817 5.56498C12.8817 4.92508 12.6435 4.28518 12.1672 3.76163C11.9885 3.58711 11.9885 3.35442 12.0481 3.17991C12.2267 2.71453 12.2267 2.24915 12.1076 1.78377C11.8099 1.84194 11.3336 2.01646 10.5595 2.54001C10.4404 2.65636 10.2618 2.65636 10.0831 2.59818C8.8327 2.24915 7.46318 2.24915 6.21275 2.59818C6.03412 2.65636 5.85548 2.65636 5.67685 2.54001C4.96232 2.01646 4.42642 1.84194 4.1287 1.78377C4.00961 2.24915 4.00961 2.71453 4.18824 3.17991C4.24779 3.4126 4.24779 3.64529 4.06916 3.76163C3.5928 4.28518 3.35462 4.92508 3.35462 5.56498C3.35462 8.29908 4.96232 8.88081 6.6891 9.05532C6.92728 9.05532 7.10591 9.22984 7.16546 9.46253C7.225 9.69522 7.16546 9.92791 7.04637 10.0443C6.74865 10.3351 6.62956 10.6842 6.62956 11.0914V11.6149V11.6731V13.3601C6.62956 13.7091 6.39138 13.9418 6.03412 13.9418C5.67685 13.9418 5.43867 13.7091 5.43867 13.3601V12.3712C3.65235 12.662 2.87827 11.6731 2.34237 11.0332C2.1042 10.7423 1.92556 10.5096 1.68739 10.4515C1.38966 10.3933 1.15149 10.0443 1.27058 9.75339C1.33012 9.46253 1.68739 9.22984 1.98511 9.34619C2.58055 9.5207 2.93782 9.92791 3.29508 10.3351C3.77143 10.975 4.18824 11.4404 5.43867 11.2077V11.1495C5.43867 10.8005 5.49822 10.3933 5.61731 10.1024C3.95007 9.75339 2.16374 8.70629 2.16374 5.62315C2.16374 4.75056 2.46146 3.93615 2.99736 3.29625C2.75918 2.48184 2.81873 1.7256 3.17599 0.969355C3.23554 0.794838 3.35462 0.678493 3.53326 0.620321C3.77143 0.562148 4.54551 0.445803 6.15321 1.43473C7.46318 1.14387 8.8327 1.14387 10.0831 1.43473C11.6313 0.445803 12.4649 0.562148 12.7031 0.620321C12.8817 0.678493 13.0008 0.794838 13.0603 0.969355C13.3581 1.7256 13.4176 2.48184 13.239 3.23808C13.7749 3.87798 14.0726 4.69239 14.0726 5.56498C14.0726 8.88081 12.0481 9.81157 10.619 10.1024Z" fill="black"/>
<mask id="mask0_13_5192" style="mask-type:luminance" maskUnits="userSpaceOnUse" x="1" y="0" width="14" height="14">
<path d="M10.619 10.1024C10.7381 10.4515 10.7977 10.8587 10.7977 11.2077V13.4183C10.7977 13.7673 10.5595 14 10.2022 14C9.84495 14 9.60677 13.7673 9.60677 13.4183V11.1495C9.66632 10.6842 9.48768 10.3351 9.18996 10.0443C9.01133 9.86974 8.95179 9.63705 9.07087 9.46253C9.13042 9.22984 9.3686 9.1135 9.54723 9.05532C11.274 8.88081 12.8817 8.29908 12.8817 5.56498C12.8817 4.92508 12.6435 4.28518 12.1672 3.76163C11.9885 3.58711 11.9885 3.35442 12.0481 3.17991C12.2267 2.71453 12.2267 2.24915 12.1076 1.78377C11.8099 1.84194 11.3336 2.01646 10.5595 2.54001C10.4404 2.65636 10.2618 2.65636 10.0831 2.59818C8.8327 2.24915 7.46318 2.24915 6.21275 2.59818C6.03412 2.65636 5.85548 2.65636 5.67685 2.54001C4.96232 2.01646 4.42642 1.84194 4.1287 1.78377C4.00961 2.24915 4.00961 2.71453 4.18824 3.17991C4.24779 3.4126 4.24779 3.64529 4.06916 3.76163C3.5928 4.28518 3.35462 4.92508 3.35462 5.56498C3.35462 8.29908 4.96232 8.88081 6.6891 9.05532C6.92728 9.05532 7.10591 9.22984 7.16546 9.46253C7.225 9.69522 7.16546 9.92791 7.04637 10.0443C6.74865 10.3351 6.62956 10.6842 6.62956 11.0914V11.6149V11.6731V13.3601C6.62956 13.7091 6.39138 13.9418 6.03412 13.9418C5.67685 13.9418 5.43867 13.7091 5.43867 13.3601V12.3712C3.65235 12.662 2.87827 11.6731 2.34237 11.0332C2.1042 10.7423 1.92556 10.5096 1.68739 10.4515C1.38966 10.3933 1.15149 10.0443 1.27058 9.75339C1.33012 9.46253 1.68739 9.22984 1.98511 9.34619C2.58055 9.5207 2.93782 9.92791 3.29508 10.3351C3.77143 10.975 4.18824 11.4404 5.43867 11.2077V11.1495C5.43867 10.8005 5.49822 10.3933 5.61731 10.1024C3.95007 9.75339 2.16374 8.70629 2.16374 5.62315C2.16374 4.75056 2.46146 3.93615 2.99736 3.29625C2.75918 2.48184 2.81873 1.7256 3.17599 0.969355C3.23554 0.794838 3.35462 0.678493 3.53326 0.620321C3.77143 0.562148 4.54551 0.445803 6.15321 1.43473C7.46318 1.14387 8.8327 1.14387 10.0831 1.43473C11.6313 0.445803 12.4649 0.562148 12.7031 0.620321C12.8817 0.678493 13.0008 0.794838 13.0603 0.969355C13.3581 1.7256 13.4176 2.48184 13.239 3.23808C13.7749 3.87798 14.0726 4.69239 14.0726 5.56498C14.0726 8.88081 12.0481 9.81157 10.619 10.1024Z" fill="white"/>
</mask>
<g mask="url(#mask0_13_5192)">
<rect x="0.65625" width="14" height="14" fill="white"/>
</g>
</svg>
