<svg width="15" height="14" viewBox="0 0 15 14" fill="none" xmlns="http://www.w3.org/2000/svg">
<path fill-rule="evenodd" clip-rule="evenodd" d="M12.3226 1.75H2.98926C1.99759 1.75 1.23926 2.50833 1.23926 3.5V10.5C1.23926 11.4917 1.99759 12.25 2.98926 12.25H12.3226C13.3143 12.25 14.0726 11.4917 14.0726 10.5V3.5C14.0726 2.50833 13.3143 1.75 12.3226 1.75ZM2.98926 2.91667H12.3226C12.5559 2.91667 12.7309 3.03333 12.8476 3.26667L7.65592 6.88333L2.46426 3.26667C2.58092 3.03333 2.75592 2.91667 2.98926 2.91667ZM2.40592 10.5C2.40592 10.85 2.63926 11.0833 2.98926 11.0833H12.3226C12.6726 11.0833 12.9059 10.85 12.9059 10.5V4.60833L8.00592 8.05C7.88926 8.10833 7.77259 8.16667 7.65592 8.16667C7.53926 8.16667 7.42259 8.10833 7.30592 8.05L2.40592 4.60833V10.5Z" fill="black"/>
<mask id="mask0_13_5195" style="mask-type:luminance" maskUnits="userSpaceOnUse" x="1" y="1" width="14" height="12">
<path fill-rule="evenodd" clip-rule="evenodd" d="M12.3226 1.75H2.98926C1.99759 1.75 1.23926 2.50833 1.23926 3.5V10.5C1.23926 11.4917 1.99759 12.25 2.98926 12.25H12.3226C13.3143 12.25 14.0726 11.4917 14.0726 10.5V3.5C14.0726 2.50833 13.3143 1.75 12.3226 1.75ZM2.98926 2.91667H12.3226C12.5559 2.91667 12.7309 3.03333 12.8476 3.26667L7.65592 6.88333L2.46426 3.26667C2.58092 3.03333 2.75592 2.91667 2.98926 2.91667ZM2.40592 10.5C2.40592 10.85 2.63926 11.0833 2.98926 11.0833H12.3226C12.6726 11.0833 12.9059 10.85 12.9059 10.5V4.60833L8.00592 8.05C7.88926 8.10833 7.77259 8.16667 7.65592 8.16667C7.53926 8.16667 7.42259 8.10833 7.30592 8.05L2.40592 4.60833V10.5Z" fill="white"/>
</mask>
<g mask="url(#mask0_13_5195)">
<rect x="0.65625" width="14" height="14" fill="white"/>
</g>
</svg>
