<svg width="14" height="14" viewBox="0 0 14 14" fill="none" xmlns="http://www.w3.org/2000/svg">
<path fill-rule="evenodd" clip-rule="evenodd" d="M13.1117 1.27683C13.2864 1.1595 13.5774 1.1595 13.752 1.27683C13.9267 1.39415 14.0431 1.6288 13.9849 1.86345C13.8102 2.68473 13.4028 3.44734 12.8207 4.09263V4.38594C12.8207 7.61239 11.4237 10.3109 8.92072 11.7188C7.64014 12.4814 6.24314 12.8334 4.78793 12.8334C3.33271 12.8334 1.76109 12.4227 0.305876 11.6014C0.0730419 11.4841 -0.0433749 11.1908 0.0148335 10.9562C0.0730419 10.7215 0.364084 10.5455 0.596918 10.5455C1.58646 10.5455 2.576 10.3695 3.44913 9.95889C1.29542 8.60965 0.713335 6.73245 0.655126 5.26588C0.596918 3.56467 1.179 2.15677 1.23721 2.0981C1.29542 1.92212 1.47004 1.74613 1.70288 1.74613C1.93571 1.74613 2.11034 1.80479 2.22675 1.98078C3.2163 3.38868 4.72972 4.26862 6.41776 4.38594C6.41776 3.44734 6.82522 2.5674 7.58193 1.98078C8.80431 0.86619 10.6088 0.924853 11.7729 1.98078C12.2386 1.80479 12.7043 1.57014 13.1117 1.27683ZM11.5983 4.03397C11.5983 3.85798 11.6565 3.62333 11.7729 3.50601C11.8311 3.41801 11.8894 3.34468 11.9476 3.27136C12.0058 3.19803 12.064 3.1247 12.1222 3.0367C12.064 3.06604 11.9912 3.0807 11.9185 3.09537C11.8457 3.11003 11.7729 3.1247 11.7147 3.15403C11.5401 3.21269 11.3073 3.15403 11.1326 2.97804C10.4341 2.15677 9.09535 2.03944 8.28043 2.80205C7.81476 3.21269 7.58193 3.79932 7.58193 4.38594V4.97257C7.58193 5.26588 7.29089 5.5592 6.99985 5.5592C5.07897 5.61786 3.27451 4.85524 1.99392 3.56467C1.64467 5.03123 1.52825 7.9057 4.90434 9.43092C5.07897 9.48959 5.25359 9.66558 5.25359 9.90022C5.25359 10.1349 5.19538 10.3109 4.96255 10.4282C4.32226 10.8975 3.62376 11.1908 2.86705 11.4255C4.78793 11.8948 6.7088 11.6601 8.33864 10.7215C10.4341 9.48959 11.6565 7.20175 11.6565 4.38594C11.6565 4.26862 11.6565 4.15129 11.5983 4.03397Z" fill="black"/>
<mask id="mask0_13_5198" style="mask-type:luminance" maskUnits="userSpaceOnUse" x="0" y="1" width="14" height="12">
<path fill-rule="evenodd" clip-rule="evenodd" d="M13.1117 1.27683C13.2864 1.1595 13.5774 1.1595 13.752 1.27683C13.9267 1.39415 14.0431 1.6288 13.9849 1.86345C13.8102 2.68473 13.4028 3.44734 12.8207 4.09263V4.38594C12.8207 7.61239 11.4237 10.3109 8.92072 11.7188C7.64014 12.4814 6.24314 12.8334 4.78793 12.8334C3.33271 12.8334 1.76109 12.4227 0.305876 11.6014C0.0730419 11.4841 -0.0433749 11.1908 0.0148335 10.9562C0.0730419 10.7215 0.364084 10.5455 0.596918 10.5455C1.58646 10.5455 2.576 10.3695 3.44913 9.95889C1.29542 8.60965 0.713335 6.73245 0.655126 5.26588C0.596918 3.56467 1.179 2.15677 1.23721 2.0981C1.29542 1.92212 1.47004 1.74613 1.70288 1.74613C1.93571 1.74613 2.11034 1.80479 2.22675 1.98078C3.2163 3.38868 4.72972 4.26862 6.41776 4.38594C6.41776 3.44734 6.82522 2.5674 7.58193 1.98078C8.80431 0.86619 10.6088 0.924853 11.7729 1.98078C12.2386 1.80479 12.7043 1.57014 13.1117 1.27683ZM11.5983 4.03397C11.5983 3.85798 11.6565 3.62333 11.7729 3.50601C11.8311 3.41801 11.8894 3.34468 11.9476 3.27136C12.0058 3.19803 12.064 3.1247 12.1222 3.0367C12.064 3.06604 11.9912 3.0807 11.9185 3.09537C11.8457 3.11003 11.7729 3.1247 11.7147 3.15403C11.5401 3.21269 11.3073 3.15403 11.1326 2.97804C10.4341 2.15677 9.09535 2.03944 8.28043 2.80205C7.81476 3.21269 7.58193 3.79932 7.58193 4.38594V4.97257C7.58193 5.26588 7.29089 5.5592 6.99985 5.5592C5.07897 5.61786 3.27451 4.85524 1.99392 3.56467C1.64467 5.03123 1.52825 7.9057 4.90434 9.43092C5.07897 9.48959 5.25359 9.66558 5.25359 9.90022C5.25359 10.1349 5.19538 10.3109 4.96255 10.4282C4.32226 10.8975 3.62376 11.1908 2.86705 11.4255C4.78793 11.8948 6.7088 11.6601 8.33864 10.7215C10.4341 9.48959 11.6565 7.20175 11.6565 4.38594C11.6565 4.26862 11.6565 4.15129 11.5983 4.03397Z" fill="white"/>
</mask>
<g mask="url(#mask0_13_5198)">
<rect width="14" height="14" fill="white"/>
</g>
</svg>
